<?xml version="1.0" encoding="UTF-8"?>
<svg id="Capa_2" data-name="Capa 2" xmlns="http://www.w3.org/2000/svg" viewBox="0 0 70 70">
  <defs>
    <style>
      .cls-1 {
        fill: #b8724f;
        stroke-width: 0px;
      }
    </style>
  </defs>
  <g id="Capa_1-2" data-name="Capa 1">
    <path class="cls-1" d="m0,34.74c1.58-.68,3.07-1.31,4.55-1.98,4.85-2.16,9.64-4.44,14.2-7.18,2.89-1.73,5.15-4.02,6.91-6.89,3.39-5.54,6.21-11.37,8.92-17.26.21-.45.42-.9.67-1.44.79,1.76,1.52,3.42,2.28,5.06,2.2,4.73,4.49,9.41,7.24,13.86,1.78,2.88,4.09,5.17,6.95,6.96,5.55,3.48,11.44,6.28,17.39,8.97.25.11.49.23.9.42-.43.19-.73.33-1.02.46-5.62,2.52-11.16,5.19-16.48,8.31-3.6,2.1-6.45,4.88-8.63,8.44-3.31,5.42-6.13,11.1-8.81,16.85-.09.2-.19.4-.32.66-.95-2.07-1.81-4.1-2.79-6.07-1.81-3.64-3.7-7.24-5.55-10.86-2.14-4.17-5.3-7.3-9.37-9.65-5.32-3.08-10.8-5.81-16.38-8.37-.18-.08-.37-.17-.64-.31Z"/>
  </g>
</svg>